<svg width="170" height="32" viewBox="0 0 170 32" fill="none" xmlns="http://www.w3.org/2000/svg">
<path d="M35.9797 12.8369V15.0015H27.365V12.8369H35.9797ZM29.8758 8.85425H32.4299V24.6984C32.4299 25.4199 32.5346 25.961 32.7438 26.3218C32.9602 26.6753 33.2344 26.9134 33.5663 27.0361C33.9054 27.1515 34.2625 27.2093 34.6377 27.2093C34.9191 27.2093 35.15 27.1948 35.3303 27.166C35.5107 27.1299 35.655 27.101 35.7633 27.0794L36.2827 29.3737C36.1096 29.4387 35.8679 29.5036 35.5577 29.5686C35.2474 29.6407 34.8542 29.6768 34.378 29.6768C33.6565 29.6768 32.9494 29.5216 32.2568 29.2114C31.5714 28.9011 31.0014 28.4286 30.5468 27.7937C30.0995 27.1588 29.8758 26.3578 29.8758 25.391V8.85425ZM46.6128 29.8066C45.0111 29.8066 43.6294 29.4531 42.4678 28.7461C41.3134 28.0318 40.4224 27.0361 39.7947 25.759C39.1742 24.4748 38.8639 22.9812 38.8639 21.2785C38.8639 19.5758 39.1742 18.075 39.7947 16.7763C40.4224 15.4704 41.2954 14.4531 42.4137 13.7244C43.5392 12.9885 44.8524 12.6205 46.3531 12.6205C47.2189 12.6205 48.0739 12.7648 48.918 13.0534C49.7622 13.342 50.5306 13.811 51.2233 14.4603C51.9161 15.1025 52.4677 15.9538 52.8792 17.0145C53.2901 18.075 53.4958 19.3809 53.4958 20.9322V22.0144H40.6821V19.8066H50.8987C50.8987 18.8687 50.711 18.0318 50.3358 17.2958C49.9678 16.5599 49.4411 15.9791 48.7557 15.5534C48.0775 15.1277 47.2766 14.9149 46.3531 14.9149C45.3358 14.9149 44.4555 15.1674 43.7124 15.6724C42.9765 16.1703 42.4101 16.8196 42.0133 17.6205C41.6164 18.4213 41.418 19.28 41.418 20.1963V21.6681C41.418 22.9235 41.6344 23.9878 42.0674 24.8608C42.5075 25.7265 43.1172 26.3867 43.8964 26.8413C44.6756 27.2886 45.5811 27.5123 46.6128 27.5123C47.2838 27.5123 47.8899 27.4185 48.431 27.2309C48.9794 27.0361 49.452 26.7475 49.8488 26.3651C50.2456 25.9755 50.5522 25.4921 50.7687 24.9149L53.2362 25.6075C52.9767 26.4445 52.5399 27.1804 51.9268 27.8153C51.3132 28.443 50.5558 28.9336 49.654 29.2872C48.7521 29.6335 47.7384 29.8066 46.6128 29.8066ZM64.1345 29.8066C62.5762 29.8066 61.2342 29.4387 60.1086 28.7027C58.983 27.9668 58.117 26.9531 57.511 25.6616C56.9051 24.3701 56.6018 22.8947 56.6018 21.2352C56.6018 19.5469 56.9122 18.057 57.5329 16.7655C58.1607 15.4668 59.0333 14.4531 60.1518 13.7244C61.2774 12.9885 62.5904 12.6205 64.0913 12.6205C65.2601 12.6205 66.3136 12.8369 67.2512 13.2698C68.1894 13.7028 68.9579 14.3088 69.5567 15.088C70.1556 15.8672 70.5269 16.7763 70.6712 17.8153H68.1172C67.9222 17.0577 67.4894 16.3867 66.8185 15.8023C66.1546 15.2107 65.2601 14.9149 64.1345 14.9149C63.139 14.9149 62.2658 15.1746 61.5156 15.6941C60.7725 16.2063 60.1914 16.9315 59.7729 17.8694C59.3619 18.8002 59.1562 19.8932 59.1562 21.1487C59.1562 22.4329 59.3584 23.5512 59.7622 24.5036C60.1736 25.456 60.7506 26.1955 61.4938 26.7222C62.244 27.2489 63.1242 27.5123 64.1345 27.5123C64.7984 27.5123 65.4008 27.3968 65.9418 27.166C66.4827 26.9351 66.9409 26.6032 67.3162 26.1703C67.6916 25.7374 67.9583 25.2179 68.1172 24.6118H70.6712C70.5269 25.5931 70.1698 26.4769 69.5999 27.2633C69.0371 28.0426 68.2905 28.6631 67.3594 29.1248C66.436 29.5794 65.3612 29.8066 64.1345 29.8066ZM76.9589 19.4603V29.4603H74.405V7.2958H76.9589V15.4344H77.1758C77.5654 14.5758 78.1495 13.8939 78.9287 13.3889C79.7155 12.8767 80.7613 12.6205 82.0672 12.6205C83.1999 12.6205 84.1924 12.8478 85.0437 13.3023C85.895 13.7496 86.5553 14.4387 87.0242 15.3694C87.5001 16.2929 87.7383 17.469 87.7383 18.8975V29.4603H85.1844V19.0707C85.1844 17.7504 84.8416 16.7295 84.1564 16.0079C83.4778 15.2792 82.5365 14.9149 81.3312 14.9149C80.4946 14.9149 79.7439 15.0916 79.0806 15.4452C78.4238 15.7987 77.9042 16.3146 77.5217 16.9928C77.1468 17.671 76.9589 18.4935 76.9589 19.4603ZM92.4108 29.4603V12.8369H94.8784V15.4344H95.0948C95.4412 14.5469 96.0004 13.8579 96.7725 13.3673C97.5445 12.8694 98.4715 12.6205 99.5539 12.6205C100.651 12.6205 101.563 12.8694 102.292 13.3673C103.028 13.8579 103.602 14.5469 104.013 15.4344H104.186C104.611 14.5758 105.25 13.8939 106.101 13.3889C106.953 12.8767 107.974 12.6205 109.164 12.6205C110.65 12.6205 111.866 13.0859 112.812 14.0166C113.756 14.9401 114.229 16.3795 114.229 18.3348V29.4603H111.675V18.3348C111.675 17.1082 111.34 16.2316 110.669 15.7049C109.998 15.1782 109.207 14.9149 108.299 14.9149C107.13 14.9149 106.224 15.2684 105.582 15.9755C104.94 16.6753 104.619 17.5628 104.619 18.6378V29.4603H102.021V18.075C102.021 17.1299 101.715 16.3687 101.102 15.7915C100.488 15.2071 99.6982 14.9149 98.7311 14.9149C98.0677 14.9149 97.447 15.0916 96.87 15.4452C96.3001 15.7987 95.8379 16.2893 95.4844 16.917C95.1385 17.5375 94.9652 18.2554 94.9652 19.0707V29.4603H92.4108ZM118.899 29.4603V12.8369H121.453V29.4603H118.899ZM120.198 10.0664C119.7 10.0664 119.271 9.89684 118.91 9.55774C118.556 9.2186 118.38 8.81098 118.38 8.33479C118.38 7.8586 118.556 7.45093 118.91 7.11183C119.271 6.77273 119.7 6.60318 120.198 6.60318C120.696 6.60318 121.121 6.77273 121.475 7.11183C121.836 7.45093 122.016 7.8586 122.016 8.33479C122.016 8.81098 121.836 9.2186 121.475 9.55774C121.121 9.89684 120.696 10.0664 120.198 10.0664ZM128.685 19.4603V29.4603H126.131V12.8369H128.599V15.4344H128.815C129.205 14.5902 129.796 13.912 130.59 13.3997C131.384 12.8803 132.408 12.6205 133.664 12.6205C134.789 12.6205 135.774 12.8514 136.618 13.3131C137.462 13.7677 138.119 14.4603 138.588 15.391C139.057 16.3146 139.291 17.4834 139.291 18.8975V29.4603H136.737V19.0707C136.737 17.7648 136.398 16.7475 135.72 16.0187C135.042 15.2829 134.111 14.9149 132.928 14.9149C132.113 14.9149 131.384 15.0916 130.742 15.4452C130.107 15.7987 129.606 16.3146 129.237 16.9928C128.87 17.671 128.685 18.4935 128.685 19.4603ZM150.236 29.8066C148.85 29.8066 147.628 29.4567 146.567 28.7569C145.506 28.0498 144.676 27.0541 144.078 25.7699C143.479 24.4784 143.18 22.9524 143.18 21.1919C143.18 19.4459 143.479 17.9307 144.078 16.6465C144.676 15.3622 145.51 14.3701 146.578 13.6703C147.645 12.9704 148.879 12.6205 150.279 12.6205C151.361 12.6205 152.216 12.8009 152.844 13.1616C153.479 13.5152 153.962 13.9192 154.294 14.3737C154.633 14.8211 154.897 15.189 155.084 15.4776H155.3V7.2958H157.855V29.4603H155.387V26.9062H155.084C154.897 27.2093 154.63 27.5916 154.283 28.0534C153.937 28.5079 153.443 28.9156 152.8 29.2763C152.158 29.6299 151.304 29.8066 150.236 29.8066ZM150.582 27.5123C151.606 27.5123 152.472 27.2453 153.179 26.7114C153.886 26.1703 154.424 25.4235 154.792 24.4712C155.16 23.5116 155.344 22.4041 155.344 21.1487C155.344 19.9077 155.163 18.8218 154.803 17.8911C154.442 16.9531 153.908 16.2244 153.201 15.7049C152.494 15.1782 151.621 14.9149 150.582 14.9149C149.5 14.9149 148.598 15.1926 147.876 15.7482C147.162 16.2965 146.624 17.0433 146.264 17.9885C145.91 18.9264 145.734 19.9798 145.734 21.1487C145.734 22.3319 145.914 23.4069 146.274 24.3737C146.643 25.3333 147.184 26.0981 147.898 26.6681C148.62 27.2309 149.514 27.5123 150.582 27.5123ZM164.749 29.6335C164.215 29.6335 163.757 29.4423 163.374 29.0599C162.992 28.6775 162.801 28.2193 162.801 27.6854C162.801 27.1515 162.992 26.6934 163.374 26.311C163.757 25.9286 164.215 25.7374 164.749 25.7374C165.282 25.7374 165.741 25.9286 166.123 26.311C166.506 26.6934 166.697 27.1515 166.697 27.6854C166.697 28.039 166.607 28.3636 166.426 28.6595C166.253 28.9553 166.018 29.1934 165.723 29.3737C165.434 29.5469 165.109 29.6335 164.749 29.6335Z" fill="#0C0A1C"/>
<path d="M13.9682 9.88358C13.9695 9.418 13.8778 8.9569 13.6984 8.52728C13.5189 8.09767 13.2553 7.70829 12.9232 7.38204C12.5911 7.05579 12.197 6.79923 11.7643 6.6275C11.3315 6.45577 10.8688 6.37231 10.4034 6.38201C9.9379 6.39172 9.47903 6.49437 9.05384 6.68403C8.62865 6.87365 8.24561 7.14636 7.92739 7.48617C7.60912 7.82598 7.36201 8.22603 7.20063 8.6627C7.03921 9.09942 6.96678 9.56398 6.98755 10.0291C6.30331 10.205 5.66814 10.5343 5.13003 10.9921C4.59194 11.4498 4.16507 12.0241 3.88175 12.6712C3.59843 13.3184 3.4661 14.0216 3.49476 14.7275C3.52343 15.4333 3.71235 16.1234 4.04722 16.7455C3.45844 17.2238 2.99544 17.8388 2.69852 18.5368C2.40159 19.2349 2.27973 19.995 2.34352 20.7509C2.40731 21.5068 2.65484 22.2357 3.06456 22.8741C3.47429 23.5125 4.0338 24.0412 4.69442 24.4141C4.61284 25.0452 4.66153 25.6864 4.83746 26.2981C5.0134 26.9097 5.31284 27.4788 5.71736 27.9701C6.12183 28.4615 6.62275 28.8647 7.18915 29.1548C7.75561 29.445 8.37549 29.616 9.01056 29.6572C9.64569 29.6984 10.2825 29.609 10.8817 29.3945C11.4808 29.1799 12.0296 28.8448 12.4942 28.4099C12.9589 27.9749 13.3293 27.4493 13.5829 26.8656C13.8364 26.2818 13.9675 25.6523 13.9682 25.0159V9.88358Z" stroke="#0C0A1C" stroke-width="1.52381" stroke-linecap="round" stroke-linejoin="round"/>
<path d="M13.9682 9.88358C13.9668 9.418 14.0585 8.9569 14.238 8.52728C14.4174 8.09767 14.681 7.70829 15.0131 7.38204C15.3453 7.05579 15.7393 6.79923 16.172 6.6275C16.6048 6.45577 17.0675 6.37231 17.533 6.38201C17.9984 6.39172 18.4573 6.49437 18.8825 6.68403C19.3077 6.87365 19.6907 7.14636 20.0089 7.48617C20.3272 7.82598 20.5743 8.22603 20.7357 8.6627C20.8971 9.09942 20.9696 9.56398 20.9488 10.0291C21.633 10.205 22.2682 10.5343 22.8063 10.9921C23.3444 11.4498 23.7713 12.0241 24.0546 12.6712C24.3379 13.3184 24.4702 14.0216 24.4416 14.7275C24.4129 15.4333 24.224 16.1234 23.8891 16.7455C24.4779 17.2238 24.9409 17.8388 25.2378 18.5368C25.5347 19.2349 25.6566 19.995 25.5928 20.7509C25.529 21.5068 25.2815 22.2357 24.8718 22.8741C24.462 23.5125 23.9025 24.0412 23.2419 24.4141C23.3235 25.0452 23.2748 25.6864 23.0989 26.2981C22.9229 26.9097 22.6235 27.4788 22.219 27.9701C21.8145 28.4615 21.3136 28.8647 20.7472 29.1548C20.1807 29.445 19.5608 29.616 18.9258 29.6572C18.2906 29.6984 17.6538 29.609 17.0547 29.3945C16.4555 29.1799 15.9067 28.8448 15.4421 28.4099C14.9775 27.9749 14.607 27.4493 14.3535 26.8656C14.1 26.2818 13.9688 25.6523 13.9682 25.0159V9.88358Z" stroke="#0C0A1C" stroke-width="1.52381" stroke-linecap="round" stroke-linejoin="round"/>
<path d="M17.4603 19.1958C16.4831 18.852 15.6297 18.2261 15.0081 17.3974C14.3865 16.5686 14.0246 15.5741 13.9683 14.5397C13.9119 15.5741 13.55 16.5686 12.9284 17.3974C12.3069 18.2261 11.4535 18.852 10.4762 19.1958" stroke="#0C0A1C" stroke-width="1.52381" stroke-linecap="round" stroke-linejoin="round"/>
<path d="M20.4856 11.6296C20.7673 11.1414 20.9267 10.5923 20.9501 10.0291" stroke="#0C0A1C" stroke-width="1.52381" stroke-linecap="round" stroke-linejoin="round"/>
<path d="M6.98767 10.0291C7.01068 10.5922 7.16961 11.1413 7.45096 11.6296" stroke="#0C0A1C" stroke-width="1.52381" stroke-linecap="round" stroke-linejoin="round"/>
<path d="M4.04736 16.7467C4.26031 16.5732 4.48818 16.419 4.72832 16.2857" stroke="#0C0A1C" stroke-width="1.52381" stroke-linecap="round" stroke-linejoin="round"/>
<path d="M23.2083 16.2857C23.4484 16.419 23.6762 16.5732 23.8892 16.7467" stroke="#0C0A1C" stroke-width="1.52381" stroke-linecap="round" stroke-linejoin="round"/>
<path d="M6.98409 25.0159C6.1819 25.0162 5.39318 24.8093 4.69446 24.4152" stroke="#0C0A1C" stroke-width="1.52381" stroke-linecap="round" stroke-linejoin="round"/>
<path d="M23.2421 24.4152C22.5434 24.8093 21.7547 25.0162 20.9525 25.0159" stroke="#0C0A1C" stroke-width="1.52381" stroke-linecap="round" stroke-linejoin="round"/>
</svg>
