<svg width="80" height="80" viewBox="0 0 80 80" fill="none" xmlns="http://www.w3.org/2000/svg">
<rect x="0.906801" y="0.906801" width="78.1864" height="78.1864" fill="none"/>
<rect x="0.906801" y="0.906801" width="78.1864" height="78.1864" stroke="none" stroke-width="1.8136"/>
<g clip-path="url(#clip0_79_4110)">
<rect x="33.5757" y="29.817" width="13.2834" height="8.59528" rx="4.29764" fill="white"/>
<path d="M23.6425 13.5309L23.7275 13.6639L23.775 13.6692C23.8091 13.6164 23.8225 13.6003 23.83 13.5351C23.9443 12.5314 24.4534 11.426 25.0401 10.6065C26.2223 8.96985 27.992 7.84694 29.9836 7.46974C30.5981 7.34849 31.0861 7.36276 31.6497 7.26415L31.7039 7.2544C30.402 7.97425 29.2067 9.32402 28.4962 10.6086C28.329 10.9108 28.1397 11.3576 27.9893 11.685C27.5586 12.903 27.4514 13.4592 27.3201 14.7404C27.3201 14.8222 27.3243 14.9717 27.3182 15.0476C27.3338 18.1703 28.147 19.8361 30.3079 22.0659C30.5842 22.3157 30.889 22.5565 31.0522 22.6849C31.5134 23.0546 32.0092 23.3795 32.5327 23.6553C32.5835 22.9808 32.6615 22.4554 32.9024 21.8132C33.2867 20.7886 34.2914 19.5268 35.3133 19.0782C35.585 18.915 35.7834 18.8629 36.0815 18.7622C35.3433 20.4219 35.4092 22.0659 36.0263 23.774C36.2891 24.5014 37.0065 25.7251 37.6418 26.1888C38.8276 25.8144 41.1525 25.9748 42.3766 26.1398C43.0196 25.6323 43.7189 24.4791 43.9856 23.7106C44.5616 22.0506 44.5984 20.3321 43.8383 18.7342C44.5756 19.0467 45.0891 19.2911 45.6929 19.8485C46.7749 20.8474 47.365 22.2247 47.413 23.6844C48.8201 22.9109 50.018 21.9236 50.974 20.6206C52.3747 18.7113 52.9219 16.2837 52.5733 13.9569C52.267 11.9122 51.2583 9.86476 49.764 8.41699C49.3366 8.00296 48.8662 7.66659 48.3851 7.31733C48.4949 7.31741 48.6047 7.31963 48.7146 7.32408C50.3739 7.39576 52.7611 8.20257 53.898 9.43929C55.0105 10.3718 55.8951 11.9452 56.1305 13.4028C56.1305 13.4202 56.1305 13.4377 56.1305 13.4551C56.1653 13.5709 56.1771 13.6209 56.235 13.7303C56.3504 13.6328 56.5304 13.1075 56.5891 12.9512C57.1761 11.3837 57.3973 9.82922 57.3726 8.16512C57.5119 8.33909 57.6582 8.51008 57.7743 8.69933C59.0087 10.0526 59.3532 12.6165 59.2161 14.3737C59.1866 14.7518 59.117 15.6935 58.9935 16.0432C58.9374 16.4902 58.7155 17.1965 58.5531 17.6358C57.4297 20.6765 55.1353 23.3825 52.5839 25.3465C51.6876 26.0365 50.7817 26.5843 49.7954 27.1205C51.3321 26.8762 52.7943 26.6391 54.1784 25.8549C53.6585 28.4255 52.8453 30.5018 50.5376 32.0577C49.923 32.4721 48.8248 32.9673 48.0826 33.0682C47.7594 33.1394 47.5649 33.1615 47.2329 33.1933L49.0271 45.5563C49.1413 46.3473 49.2377 47.1843 49.3762 47.9666C48.919 48.4081 48.3734 48.8778 47.9 49.3126L44.8414 52.1198C43.2445 53.576 41.6241 55.1095 40.0015 56.5239C38.8376 55.4151 37.6356 54.3612 36.4427 53.2843L30.5876 47.986C30.8512 46.4019 31.0746 44.6058 31.3055 43.0049L32.6865 33.2185C29.7692 32.8616 27.4398 31.1373 26.4178 28.3612C26.0942 27.8043 25.8541 26.5057 25.7395 25.8517C26.7081 26.3261 28.9037 27.0986 29.9832 27.0411C29.6304 26.8087 29.238 26.6312 28.8798 26.4041C23.6655 23.0998 19.3323 16.9929 21.1961 10.6081C21.4067 9.8867 21.7842 9.23139 22.2234 8.6245C22.373 8.40594 22.4382 8.32597 22.6202 8.13288C22.4956 9.44719 22.7951 11.0264 23.1912 12.2887C23.2565 12.497 23.6261 13.4109 23.6425 13.5309ZM39.8714 40.8246C38.8955 40.5797 37.6294 38.3433 37.1737 40.4474C37.0361 41.083 37.1346 41.5935 37.4871 42.1361C37.5631 42.2515 37.6419 42.365 37.7234 42.4765C37.917 42.4705 38.3167 42.2384 38.5192 42.1765C39.8577 41.7671 40.916 41.9571 42.1246 42.4841C42.8032 41.7324 43.1034 40.781 42.5482 39.8553C42.2165 39.3021 41.827 39.5942 41.4552 39.8754C41.1102 40.1363 40.3213 40.9405 39.8714 40.8246ZM38.103 34.351C38.1744 34.2794 38.1563 34.312 38.1872 34.2177C37.9049 33.6962 36.8079 32.9918 36.2551 32.7571C35.9265 32.6177 35.5618 32.5082 35.2288 32.3707C35.3278 32.8462 35.4294 33.2524 35.6847 33.6734C36.214 34.5469 37.1882 34.832 38.103 34.351ZM44.7191 32.3736C43.6575 32.7468 43.0296 32.9352 42.1905 33.7429C42.059 33.8695 41.82 34.0533 41.735 34.2025C41.7673 34.2923 41.8152 34.3202 41.8878 34.3855C42.4148 34.676 43.0662 34.6505 43.5776 34.3384C44.2923 33.9022 44.5477 33.1396 44.7191 32.3736ZM40.8941 43.8443C41.2949 43.6722 41.4259 43.6074 41.7364 43.3058C40.8816 42.8088 40.1636 42.7776 39.1831 42.907C38.9061 42.9435 38.2952 43.1027 38.1336 43.3285L38.1765 43.441L38.2321 43.468C38.3711 43.5371 38.5005 43.6321 38.6499 43.7087C39.3662 44.0763 40.1271 44.073 40.8941 43.8443Z" fill="black"/>
<path d="M34.962 28.5783C34.2118 27.8882 33.0084 26.9614 32.2017 26.2861C30.5506 24.9268 28.9551 23.5023 27.4187 22.0163C27.1858 21.7917 26.0112 20.6123 25.9417 20.3616C25.7468 19.6599 25.8706 18.8625 25.567 18.0223C25.2246 17.0747 24.6645 16.3976 24.6221 15.4033C24.5507 13.5923 25.2032 11.8266 26.4372 10.492C26.9332 9.96347 27.5914 9.48612 28.2249 9.1295C27.8545 9.65289 27.5496 10.0894 27.2609 10.6716C26.2893 12.6302 26.0006 15.0112 26.3795 17.1567C26.8881 20.0365 28.6488 22.3918 31.0296 24.0371C31.8686 24.6213 32.7683 25.1143 33.7132 25.5078C33.3351 23.9562 33.7166 22.3788 34.4962 21.018C34.3825 23.3241 35.5628 25.9433 37.2775 27.4916C39.2168 27.0754 40.8016 27.1008 42.7379 27.4899C44.5721 25.4801 45.5102 23.9135 45.485 21.1097C46.3794 22.6062 46.5044 23.7749 46.3107 25.4851C49.2368 24.2588 51.8119 22.1244 53.049 19.1414C54.051 16.725 54.0191 13.7053 52.9979 11.2947C52.686 10.5584 52.2273 9.79724 51.7762 9.1295C52.1467 9.37891 52.683 9.71827 53.0093 9.98396C54.1724 10.9263 54.9594 12.2498 55.2288 13.7168C55.3238 14.2203 55.4338 15.2864 55.3384 15.7862C55.1849 16.5895 54.6418 17.2536 54.3779 18.1017C54.1249 18.9149 54.2886 19.9785 53.8771 20.5522C53.4216 21.1871 52.6498 21.9149 52.0818 22.4602C50.8183 23.6782 49.5067 24.846 48.1497 25.9604L46.0862 27.6511C45.7649 27.9157 45.2558 28.3135 44.9648 28.5947C45.3519 29.1832 45.6414 29.6805 45.9949 30.2867C46.651 29.2756 47.0578 28.7507 48.3144 28.5117C49.8708 28.2158 51.0797 28.2619 52.5905 27.6448C51.6946 30.0955 49.9481 31.6936 47.2939 31.9072C48.2332 31.1826 49.4767 30.2598 50.28 29.4219C49.5709 29.6373 49.0779 29.82 48.3937 30.1007C47.1143 30.6257 46.2826 31.0343 45.5534 32.252C45.5602 34.6276 45.3799 36.3387 44.448 38.5771C44.2187 39.1278 44.0172 39.645 43.6708 40.14C43.6431 38.4099 43.1744 36.0647 42.0762 34.7193C41.9857 34.6084 41.8725 34.5154 41.8878 34.3855C42.4147 34.676 43.0662 34.6506 43.5776 34.3385C44.2922 33.9022 44.5476 33.1396 44.719 32.3736C44.7522 32.1964 45.233 31.4306 45.3505 31.0707C45.115 30.6712 44.4601 29.9972 44.104 29.7043C42.7295 28.5736 40.9022 28.1809 39.1517 28.3568C36.9301 28.5802 35.8544 29.442 34.5007 31.0387C34.7135 31.5727 34.9035 31.8922 35.2287 32.3707C35.3277 32.8463 35.4294 33.2524 35.6846 33.6735C36.2139 34.547 37.1881 34.832 38.103 34.351L38.1221 34.4379C37.9139 34.6873 37.7878 34.7648 37.5929 35.0624C36.5905 36.5915 36.5026 38.389 36.2647 40.1113C34.8522 37.5265 34.3507 35.2486 34.4457 32.3242C34.2099 31.9576 33.9118 31.5308 33.5825 31.2404C32.5678 30.3459 30.9299 29.8298 29.6598 29.4048C30.486 30.2366 31.7002 31.1801 32.6667 31.8852C29.9132 31.7228 28.2791 30.1403 27.3334 27.6476C27.9553 27.8495 28.5735 28.0338 29.2179 28.154C30.2415 28.3449 31.244 28.3718 32.2399 28.7098C33.1682 29.0248 33.413 29.5155 33.9371 30.2564C34.2826 29.6994 34.6243 29.14 34.962 28.5783Z" fill="#94A6EB"/>
<path d="M33.6407 35.6712C33.7032 35.7391 33.748 36.54 33.7791 36.7244C33.9614 37.8319 34.2767 38.9136 34.7183 39.9464C34.6723 40.1582 34.6441 40.4094 34.6214 40.6264C34.3914 42.823 34.1 45.0201 33.8994 47.2189C34.5642 47.8897 35.2683 48.7205 35.9053 49.428L39.9577 53.9286C41.995 51.8141 44.0474 49.4089 46.061 47.2293L45.473 42.1571C45.3979 41.4885 45.2635 40.5831 45.2723 39.9219C45.2744 39.7701 45.564 39.0482 45.6309 38.853C45.785 38.3926 45.9168 37.9251 46.0259 37.4521C46.081 37.2124 46.2964 35.9439 46.3448 35.8718C46.4092 36.0903 46.4452 36.8121 46.4678 37.0877C46.6016 38.5409 46.8009 40.0535 46.9664 41.5067C47.1666 43.4193 47.4014 45.328 47.6705 47.2322C45.1575 49.6402 42.4982 51.9756 39.9673 54.3683C37.4325 51.9845 34.8711 49.6285 32.2837 47.301C32.3807 46.0435 32.6388 44.366 32.7902 43.0837C33.0804 40.6256 33.3271 38.1205 33.6407 35.6712Z" fill="#94A6EB"/>
<path d="M57.9961 11.5673C58.0805 11.7784 58.1247 12.2901 58.1427 12.5236C58.2649 14.0393 58.0758 15.564 57.5869 17.0048C56.2001 21.0251 52.6789 24.4016 48.891 26.2442L48.7931 26.2666C48.8217 26.1831 50.2823 24.9542 50.5139 24.7418C51.8595 23.5079 53.2391 22.2369 54.4491 20.8717C55.0061 20.2433 54.7052 19.0111 55.0614 18.1843C55.6515 16.8143 56.4185 15.5495 57.0931 14.2214C57.54 13.3482 57.7225 12.4912 57.9961 11.5673Z" fill="#94A6EB"/>
<path d="M22.0482 11.608C22.1351 11.7717 22.2097 12.3808 22.2813 12.6036C22.4113 13.0084 22.5723 13.4729 22.7464 13.859C23.4408 15.3993 24.3493 16.6913 24.9294 18.2958C25.2119 18.8382 25.054 20.3135 25.3985 20.7172C26.7598 22.3118 28.4191 23.7662 29.9691 25.1793C30.2506 25.4359 31.0247 26.0413 31.1613 26.2487L31.098 26.2583C26.9658 24.2694 23.0843 20.3215 22.0716 15.7641C21.8103 14.5886 21.7456 12.7542 22.0482 11.608Z" fill="#94A6EB"/>
</g>
<path d="M14.3919 70.9421V59.3753H15.9617V70.9421H14.3919ZM21.2585 62.7297C23.6544 62.7297 25.3564 64.6134 25.3564 66.9763C25.3564 69.3558 23.671 71.1899 21.2585 71.1899C18.8295 71.1899 17.111 69.3558 17.111 66.9763C17.111 64.6134 18.8295 62.7297 21.2585 62.7297ZM21.2419 69.6862C21.9855 69.6862 22.5804 69.4384 23.0596 68.9261C23.5388 68.4139 23.7866 67.7529 23.7866 66.9763C23.7866 65.4065 22.7291 64.2333 21.2419 64.2333C19.7713 64.2333 18.6807 65.4065 18.6807 66.9763C18.6807 68.513 19.7713 69.6862 21.2419 69.6862ZM29.8363 62.7627C30.9103 62.7792 31.753 63.1923 32.3809 64.0185V62.9775H33.9507V70.6942C33.9507 73.1397 32.2983 74.8913 29.8693 74.8913C27.7047 74.8913 26.1018 73.5198 26.1349 71.4378L27.6716 71.2395C27.622 72.5614 28.5143 73.5033 29.8858 73.5033C31.3895 73.5033 32.3809 72.4457 32.3809 70.7438V69.4549C31.7696 70.2646 30.9103 70.6777 29.8363 70.6777C27.6716 70.6777 26.1018 68.9427 26.1018 66.745C26.1018 64.5638 27.6716 62.7627 29.8363 62.7627ZM30.0345 69.2071C31.4225 69.2071 32.3809 68.1826 32.3809 66.745C32.3809 65.3074 31.4225 64.2664 30.0345 64.2664C29.3405 64.2664 28.7787 64.4977 28.3326 64.9769C27.8864 65.4396 27.6716 66.0345 27.6716 66.745C27.6716 68.1826 28.6465 69.2071 30.0345 69.2071ZM35.0251 68.1165L36.5122 67.8356C36.694 68.9757 37.4541 69.7358 38.6273 69.7358C39.6848 69.7358 40.3127 69.2897 40.3127 68.6287C40.3127 68.0504 39.8335 67.6538 38.4621 67.5051C36.5288 67.3068 35.5704 66.431 35.5704 65.0265C35.5704 63.7046 36.8262 62.7297 38.4951 62.7297C39.9492 62.7297 41.1885 63.6715 41.5355 65.1422L40.164 65.5718C39.9657 64.696 39.3378 64.1838 38.4951 64.1838C37.6854 64.1838 37.1401 64.4977 37.1401 65.01C37.1401 65.5553 37.4871 65.8692 38.6603 65.9849C40.7919 66.1997 41.866 67.0589 41.866 68.5626C41.866 69.3392 41.5686 69.9837 40.9572 70.4629C40.3623 70.9421 39.5857 71.1899 38.6273 71.1899C37.6854 71.1899 36.8758 70.909 36.2313 70.3472C35.5869 69.7689 35.1738 69.0253 35.0251 68.1165ZM42.0108 64.3655V62.9775H43.4649V60.5981H45.0346V62.9775H49.0665V64.3655H45.0346V68.1991C45.0346 69.2071 45.5634 69.7523 46.4722 69.7523C47.381 69.7523 47.9098 69.0253 47.8437 67.9017L49.3474 68.0504C49.4465 69.9506 48.1742 71.1899 46.5218 71.1899C44.6215 71.1899 43.4649 70.0332 43.4649 68.166V64.3655H42.0108ZM53.067 66.1501L55.0499 65.8196V65.4892C55.0499 64.6464 54.4385 64.0681 53.3149 64.0681C52.2077 64.0681 51.5633 64.7125 51.5633 65.7205L51.5798 65.9518L50.0927 65.8362C49.9935 63.8203 51.4642 62.7131 53.2818 62.7131C55.3803 62.7131 56.537 63.8037 56.537 65.5718V70.9421H55.0664V69.9506C54.6202 70.6942 53.8601 71.1899 52.7861 71.1899C50.9685 71.1899 50.0596 70.0002 50.0596 68.8105C50.0596 67.2903 51.0676 66.4806 53.067 66.1501ZM53.0835 69.7689C54.2237 69.7689 55.0499 68.8766 55.0499 67.5547V67.092L53.2983 67.3729C52.2243 67.5712 51.5468 67.9017 51.5468 68.6452C51.5468 69.3227 52.1417 69.7689 53.0835 69.7689ZM61.4413 62.7627C62.5154 62.7792 63.3581 63.1923 63.986 64.0185V62.9775H65.5558V70.6942C65.5558 73.1397 63.9034 74.8913 61.4744 74.8913C59.3097 74.8913 57.7069 73.5198 57.74 71.4378L59.2767 71.2395C59.2271 72.5614 60.1194 73.5033 61.4909 73.5033C62.9946 73.5033 63.986 72.4457 63.986 70.7438V69.4549C63.3746 70.2646 62.5154 70.6777 61.4413 70.6777C59.2767 70.6777 57.7069 68.9427 57.7069 66.745C57.7069 64.5638 59.2767 62.7627 61.4413 62.7627ZM61.6396 69.2071C63.0276 69.2071 63.986 68.1826 63.986 66.745C63.986 65.3074 63.0276 64.2664 61.6396 64.2664C60.9456 64.2664 60.3838 64.4977 59.9376 64.9769C59.4915 65.4396 59.2767 66.0345 59.2767 66.745C59.2767 68.1826 60.2516 69.2071 61.6396 69.2071Z" fill="black"/>
<defs>
<clipPath id="clip0_79_4110">
<rect width="38.4887" height="49.2695" fill="white" transform="translate(20.7556 7.2544)"/>
</clipPath>
</defs>
</svg>
