<svg width="170" height="32" viewBox="0 0 170 32" fill="none" xmlns="http://www.w3.org/2000/svg">
<path d="M35.9797 12.8368V15.0013H27.365V12.8368H35.9797ZM29.8758 8.8541H32.4299V24.6983C32.4299 25.4198 32.5346 25.9609 32.7438 26.3216C32.9602 26.6752 33.2344 26.9133 33.5663 27.0359C33.9054 27.1513 34.2625 27.2091 34.6377 27.2091C34.9191 27.2091 35.15 27.1947 35.3303 27.1658C35.5107 27.1297 35.655 27.1009 35.7633 27.0792L36.2827 29.3736C36.1096 29.4385 35.8679 29.5034 35.5577 29.5684C35.2474 29.6405 34.8542 29.6766 34.378 29.6766C33.6565 29.6766 32.9494 29.5215 32.2568 29.2112C31.5714 28.901 31.0014 28.4285 30.5468 27.7935C30.0995 27.1586 29.8758 26.3577 29.8758 25.3909V8.8541ZM46.6128 29.8065C45.0111 29.8065 43.6294 29.453 42.4678 28.7459C41.3134 28.0316 40.4224 27.0359 39.7947 25.7589C39.1742 24.4746 38.8639 22.9811 38.8639 21.2783C38.8639 19.5756 39.1742 18.0749 39.7947 16.7762C40.4224 15.4703 41.2954 14.4529 42.4137 13.7242C43.5392 12.9883 44.8524 12.6203 46.3531 12.6203C47.2189 12.6203 48.0739 12.7647 48.918 13.0533C49.7622 13.3418 50.5306 13.8108 51.2233 14.4602C51.9161 15.1023 52.4677 15.9537 52.8792 17.0143C53.2901 18.0749 53.4958 19.3808 53.4958 20.932V22.0143H40.6821V19.8065H50.8987C50.8987 18.8685 50.711 18.0316 50.3358 17.2957C49.9678 16.5598 49.4411 15.9789 48.7557 15.5532C48.0775 15.1276 47.2766 14.9147 46.3531 14.9147C45.3358 14.9147 44.4555 15.1672 43.7124 15.6723C42.9765 16.1701 42.4101 16.8195 42.0133 17.6203C41.6164 18.4212 41.418 19.2798 41.418 20.1961V21.668C41.418 22.9234 41.6344 23.9876 42.0674 24.8606C42.5075 25.7264 43.1172 26.3866 43.8964 26.8411C44.6756 27.2884 45.5811 27.5121 46.6128 27.5121C47.2838 27.5121 47.8899 27.4183 48.431 27.2307C48.9794 27.0359 49.452 26.7473 49.8488 26.3649C50.2456 25.9753 50.5522 25.4919 50.7687 24.9147L53.2362 25.6074C52.9767 26.4443 52.5399 27.1802 51.9268 27.8152C51.3132 28.4429 50.5558 28.9335 49.654 29.287C48.7521 29.6333 47.7384 29.8065 46.6128 29.8065ZM64.1345 29.8065C62.5762 29.8065 61.2342 29.4385 60.1086 28.7026C58.983 27.9667 58.117 26.9529 57.511 25.6615C56.9051 24.37 56.6018 22.8945 56.6018 21.2351C56.6018 19.5468 56.9122 18.0568 57.5329 16.7654C58.1607 15.4667 59.0333 14.4529 60.1518 13.7242C61.2774 12.9883 62.5904 12.6203 64.0913 12.6203C65.2601 12.6203 66.3136 12.8368 67.2512 13.2697C68.1894 13.7026 68.9579 14.3087 69.5567 15.0879C70.1556 15.8671 70.5269 16.7762 70.6712 17.8152H68.1172C67.9222 17.0576 67.4894 16.3866 66.8185 15.8022C66.1546 15.2105 65.2601 14.9147 64.1345 14.9147C63.139 14.9147 62.2658 15.1745 61.5156 15.6939C60.7725 16.2062 60.1914 16.9313 59.7729 17.8693C59.3619 18.8 59.1562 19.8931 59.1562 21.1485C59.1562 22.4328 59.3584 23.5511 59.7622 24.5035C60.1736 25.4559 60.7506 26.1954 61.4938 26.7221C62.244 27.2488 63.1242 27.5121 64.1345 27.5121C64.7984 27.5121 65.4008 27.3967 65.9418 27.1658C66.4827 26.9349 66.9409 26.603 67.3162 26.1701C67.6916 25.7373 67.9583 25.2177 68.1172 24.6117H70.6712C70.5269 25.5929 70.1698 26.4768 69.5999 27.2632C69.0371 28.0424 68.2905 28.6629 67.3594 29.1247C66.436 29.5792 65.3612 29.8065 64.1345 29.8065ZM76.9589 19.4602V29.4602H74.405V7.29565H76.9589V15.4342H77.1758C77.5654 14.5756 78.1495 13.8938 78.9287 13.3888C79.7155 12.8765 80.7613 12.6203 82.0672 12.6203C83.1999 12.6203 84.1924 12.8476 85.0437 13.3022C85.895 13.7495 86.5553 14.4385 87.0242 15.3692C87.5001 16.2928 87.7383 17.4688 87.7383 18.8974V29.4602H85.1844V19.0706C85.1844 17.7502 84.8416 16.7293 84.1564 16.0078C83.4778 15.2791 82.5365 14.9147 81.3312 14.9147C80.4946 14.9147 79.7439 15.0915 79.0806 15.445C78.4238 15.7986 77.9042 16.3144 77.5217 16.9926C77.1468 17.6709 76.9589 18.4934 76.9589 19.4602ZM92.4108 29.4602V12.8368H94.8784V15.4342H95.0948C95.4412 14.5467 96.0004 13.8577 96.7725 13.3671C97.5445 12.8692 98.4715 12.6203 99.5539 12.6203C100.651 12.6203 101.563 12.8692 102.292 13.3671C103.028 13.8577 103.602 14.5467 104.013 15.4342H104.186C104.611 14.5756 105.25 13.8938 106.101 13.3888C106.953 12.8765 107.974 12.6203 109.164 12.6203C110.65 12.6203 111.866 13.0857 112.812 14.0165C113.756 14.94 114.229 16.3794 114.229 18.3346V29.4602H111.675V18.3346C111.675 17.1081 111.34 16.2315 110.669 15.7047C109.998 15.1781 109.207 14.9147 108.299 14.9147C107.13 14.9147 106.224 15.2683 105.582 15.9753C104.94 16.6752 104.619 17.5626 104.619 18.6377V29.4602H102.021V18.0749C102.021 17.1297 101.715 16.3686 101.102 15.7913C100.488 15.2069 99.6982 14.9147 98.7311 14.9147C98.0677 14.9147 97.447 15.0915 96.87 15.445C96.3001 15.7986 95.8379 16.2892 95.4844 16.9169C95.1385 17.5374 94.9652 18.2552 94.9652 19.0706V29.4602H92.4108ZM118.899 29.4602V12.8368H121.453V29.4602H118.899ZM120.198 10.0662C119.7 10.0662 119.271 9.89669 118.91 9.55759C118.556 9.21844 118.38 8.81082 118.38 8.33463C118.38 7.85844 118.556 7.45077 118.91 7.11167C119.271 6.77258 119.7 6.60303 120.198 6.60303C120.696 6.60303 121.121 6.77258 121.475 7.11167C121.836 7.45077 122.016 7.85844 122.016 8.33463C122.016 8.81082 121.836 9.21844 121.475 9.55759C121.121 9.89669 120.696 10.0662 120.198 10.0662ZM128.685 19.4602V29.4602H126.131V12.8368H128.599V15.4342H128.815C129.205 14.59 129.796 13.9118 130.59 13.3996C131.384 12.8801 132.408 12.6203 133.664 12.6203C134.789 12.6203 135.774 12.8512 136.618 13.313C137.462 13.7675 138.119 14.4602 138.588 15.3909C139.057 16.3144 139.291 17.4833 139.291 18.8974V29.4602H136.737V19.0706C136.737 17.7646 136.398 16.7473 135.72 16.0186C135.042 15.2827 134.111 14.9147 132.928 14.9147C132.113 14.9147 131.384 15.0915 130.742 15.445C130.107 15.7986 129.606 16.3144 129.237 16.9926C128.87 17.6709 128.685 18.4934 128.685 19.4602ZM150.236 29.8065C148.85 29.8065 147.628 29.4566 146.567 28.7567C145.506 28.0496 144.676 27.054 144.078 25.7697C143.479 24.4782 143.18 22.9522 143.18 21.1918C143.18 19.4457 143.479 17.9306 144.078 16.6463C144.676 15.362 145.51 14.37 146.578 13.6702C147.645 12.9703 148.879 12.6203 150.279 12.6203C151.361 12.6203 152.216 12.8007 152.844 13.1615C153.479 13.515 153.962 13.919 154.294 14.3736C154.633 14.8209 154.897 15.1889 155.084 15.4775H155.3V7.29565H157.855V29.4602H155.387V26.9061H155.084C154.897 27.2091 154.63 27.5915 154.283 28.0532C153.937 28.5078 153.443 28.9155 152.8 29.2762C152.158 29.6297 151.304 29.8065 150.236 29.8065ZM150.582 27.5121C151.606 27.5121 152.472 27.2452 153.179 26.7113C153.886 26.1701 154.424 25.4234 154.792 24.471C155.16 23.5114 155.344 22.4039 155.344 21.1485C155.344 19.9075 155.163 18.8216 154.803 17.8909C154.442 16.9529 153.908 16.2243 153.201 15.7047C152.494 15.1781 151.621 14.9147 150.582 14.9147C149.5 14.9147 148.598 15.1925 147.876 15.7481C147.162 16.2964 146.624 17.0432 146.264 17.9883C145.91 18.9263 145.734 19.9796 145.734 21.1485C145.734 22.3317 145.914 23.4068 146.274 24.3736C146.643 25.3332 147.184 26.098 147.898 26.6679C148.62 27.2307 149.514 27.5121 150.582 27.5121ZM164.749 29.6333C164.215 29.6333 163.757 29.4421 163.374 29.0597C162.992 28.6773 162.801 28.2192 162.801 27.6853C162.801 27.1513 162.992 26.6932 163.374 26.3108C163.757 25.9284 164.215 25.7373 164.749 25.7373C165.282 25.7373 165.741 25.9284 166.123 26.3108C166.506 26.6932 166.697 27.1513 166.697 27.6853C166.697 28.0388 166.607 28.3635 166.426 28.6593C166.253 28.9551 166.018 29.1932 165.723 29.3736C165.434 29.5468 165.109 29.6333 164.749 29.6333Z" fill="#0C0A1C"/>
<path d="M13.9682 9.88367C13.9695 9.41809 13.8778 8.95699 13.6984 8.52738C13.5189 8.09776 13.2553 7.70838 12.9232 7.38213C12.5911 7.05588 12.197 6.79933 11.7643 6.62759C11.3315 6.45586 10.8688 6.3724 10.4034 6.38211C9.9379 6.39181 9.47903 6.49446 9.05384 6.68413C8.62865 6.87374 8.24561 7.14645 7.92739 7.48626C7.60912 7.82607 7.36201 8.22612 7.20063 8.66279C7.03921 9.09952 6.96678 9.56407 6.98755 10.0292C6.30331 10.2051 5.66814 10.5344 5.13003 10.9922C4.59194 11.4499 4.16507 12.0242 3.88175 12.6713C3.59843 13.3185 3.4661 14.0217 3.49476 14.7276C3.52343 15.4334 3.71235 16.1235 4.04722 16.7456C3.45844 17.2239 2.99544 17.8389 2.69852 18.5369C2.40159 19.235 2.27973 19.9951 2.34352 20.751C2.40731 21.5069 2.65484 22.2358 3.06456 22.8742C3.47429 23.5126 4.0338 24.0413 4.69442 24.4142C4.61284 25.0453 4.66153 25.6865 4.83746 26.2981C5.0134 26.9098 5.31284 27.4788 5.71736 27.9702C6.12183 28.4615 6.62275 28.8647 7.18915 29.1549C7.75561 29.4451 8.37549 29.6161 9.01056 29.6573C9.64569 29.6985 10.2825 29.6091 10.8817 29.3946C11.4808 29.18 12.0296 28.8449 12.4942 28.41C12.9589 27.975 13.3293 27.4494 13.5829 26.8657C13.8364 26.2819 13.9675 25.6524 13.9682 25.016V9.88367Z" stroke="#0C0A1C" stroke-width="1.52381" stroke-linecap="round" stroke-linejoin="round"/>
<path d="M13.9682 9.88367C13.9668 9.41809 14.0585 8.95699 14.238 8.52738C14.4174 8.09776 14.681 7.70838 15.0131 7.38213C15.3453 7.05588 15.7393 6.79933 16.172 6.62759C16.6048 6.45586 17.0675 6.3724 17.533 6.38211C17.9984 6.39181 18.4573 6.49446 18.8825 6.68413C19.3077 6.87374 19.6907 7.14645 20.0089 7.48626C20.3272 7.82607 20.5743 8.22612 20.7357 8.66279C20.8971 9.09952 20.9696 9.56407 20.9488 10.0292C21.633 10.2051 22.2682 10.5344 22.8063 10.9922C23.3444 11.4499 23.7713 12.0242 24.0546 12.6713C24.3379 13.3185 24.4702 14.0217 24.4416 14.7276C24.4129 15.4334 24.224 16.1235 23.8891 16.7456C24.4779 17.2239 24.9409 17.8389 25.2378 18.5369C25.5347 19.235 25.6566 19.9951 25.5928 20.751C25.529 21.5069 25.2815 22.2358 24.8718 22.8742C24.462 23.5126 23.9025 24.0413 23.2419 24.4142C23.3235 25.0453 23.2748 25.6865 23.0989 26.2981C22.9229 26.9098 22.6235 27.4788 22.219 27.9702C21.8145 28.4615 21.3136 28.8647 20.7472 29.1549C20.1807 29.4451 19.5608 29.6161 18.9258 29.6573C18.2906 29.6985 17.6538 29.6091 17.0547 29.3946C16.4555 29.18 15.9067 28.8449 15.4421 28.41C14.9775 27.975 14.607 27.4494 14.3535 26.8657C14.1 26.2819 13.9688 25.6524 13.9682 25.016V9.88367Z" stroke="#0C0A1C" stroke-width="1.52381" stroke-linecap="round" stroke-linejoin="round"/>
<path d="M17.4603 19.1957C16.4831 18.8518 15.6297 18.226 15.0081 17.3973C14.3865 16.5685 14.0246 15.574 13.9683 14.5396C13.9119 15.574 13.55 16.5685 12.9284 17.3973C12.3069 18.226 11.4535 18.8518 10.4762 19.1957" stroke="#0C0A1C" stroke-width="1.52381" stroke-linecap="round" stroke-linejoin="round"/>
<path d="M20.4856 11.6298C20.7673 11.1416 20.9267 10.5924 20.9501 10.0293" stroke="#0C0A1C" stroke-width="1.52381" stroke-linecap="round" stroke-linejoin="round"/>
<path d="M6.98767 10.0293C7.01068 10.5924 7.16961 11.1415 7.45096 11.6298" stroke="#0C0A1C" stroke-width="1.52381" stroke-linecap="round" stroke-linejoin="round"/>
<path d="M4.04736 16.7471C4.26031 16.5737 4.48818 16.4194 4.72832 16.2861" stroke="#0C0A1C" stroke-width="1.52381" stroke-linecap="round" stroke-linejoin="round"/>
<path d="M23.2083 16.2861C23.4484 16.4194 23.6762 16.5737 23.8892 16.7471" stroke="#0C0A1C" stroke-width="1.52381" stroke-linecap="round" stroke-linejoin="round"/>
<path d="M6.98409 25.0157C6.1819 25.016 5.39318 24.8091 4.69446 24.415" stroke="#0C0A1C" stroke-width="1.52381" stroke-linecap="round" stroke-linejoin="round"/>
<path d="M23.2421 24.415C22.5434 24.8091 21.7547 25.016 20.9525 25.0157" stroke="#0C0A1C" stroke-width="1.52381" stroke-linecap="round" stroke-linejoin="round"/>
</svg>
