<svg width="48" height="48" viewBox="0 0 48 48" fill="none" xmlns="http://www.w3.org/2000/svg">
<path d="M0 24C0 10.7452 10.7452 0 24 0C37.2548 0 48 10.7452 48 24C48 37.2548 37.2548 48 24 48C10.7452 48 0 37.2548 0 24Z" fill="#E0F1FF"/>
<path d="M24 24.5C25.6569 24.5 27 23.1569 27 21.5C27 19.8431 25.6569 18.5 24 18.5C22.3431 18.5 21 19.8431 21 21.5C21 23.1569 22.3431 24.5 24 24.5Z" stroke="#0089F7" stroke-width="2" stroke-linecap="round" stroke-linejoin="round"/>
<path d="M24 34C26 30 32 27.4183 32 22C32 17.5817 28.4183 14 24 14C19.5817 14 16 17.5817 16 22C16 27.4183 22 30 24 34Z" stroke="#0089F7" stroke-width="2" stroke-linecap="round" stroke-linejoin="round"/>
</svg>
