<svg width="48" height="48" viewBox="0 0 48 48" fill="none" xmlns="http://www.w3.org/2000/svg">
<path d="M0 24C0 10.7452 10.7452 0 24 0C37.2548 0 48 10.7452 48 24C48 37.2548 37.2548 48 24 48C10.7452 48 0 37.2548 0 24Z" fill="#E0F1FF"/>
<path d="M14 19L22.1649 24.7154C22.8261 25.1783 23.1567 25.4097 23.5163 25.4993C23.8339 25.5785 24.1661 25.5785 24.4837 25.4993C24.8433 25.4097 25.1739 25.1783 25.8351 24.7154L34 19M18.8 32H29.2C30.8802 32 31.7202 32 32.362 31.673C32.9265 31.3854 33.3854 30.9265 33.673 30.362C34 29.7202 34 28.8802 34 27.2V20.8C34 19.1198 34 18.2798 33.673 17.638C33.3854 17.0735 32.9265 16.6146 32.362 16.327C31.7202 16 30.8802 16 29.2 16H18.8C17.1198 16 16.2798 16 15.638 16.327C15.0735 16.6146 14.6146 17.0735 14.327 17.638C14 18.2798 14 19.1198 14 20.8V27.2C14 28.8802 14 29.7202 14.327 30.362C14.6146 30.9265 15.0735 31.3854 15.638 31.673C16.2798 32 17.1198 32 18.8 32Z" stroke="#0089F7" stroke-width="2" stroke-linecap="round" stroke-linejoin="round"/>
</svg>
