<svg width="48" height="48" viewBox="0 0 48 48" fill="none" xmlns="http://www.w3.org/2000/svg">
<path d="M0 24C0 10.7452 10.7452 0 24 0C37.2548 0 48 10.7452 48 24C48 37.2548 37.2548 48 24 48C10.7452 48 0 37.2548 0 24Z" fill="#E0F1FF"/>
<path d="M20.3803 20.8534C21.0763 22.303 22.0251 23.6616 23.2266 24.8632C24.4282 26.0648 25.7869 27.0136 27.2365 27.7096C27.3612 27.7694 27.4235 27.7994 27.5024 27.8224C27.7828 27.9041 28.127 27.8454 28.3644 27.6754C28.4313 27.6275 28.4884 27.5704 28.6027 27.4561C28.9523 27.1064 29.1271 26.9316 29.3029 26.8174C29.9658 26.3864 30.8204 26.3864 31.4833 26.8174C31.6591 26.9316 31.8339 27.1064 32.1835 27.4561L32.3783 27.6509C32.9098 28.1824 33.1755 28.4481 33.3198 28.7335C33.6069 29.301 33.6069 29.9713 33.3198 30.5389C33.1755 30.8242 32.9098 31.09 32.3783 31.6214L32.2207 31.779C31.6911 32.3087 31.4263 32.5735 31.0662 32.7757C30.6667 33.0001 30.0462 33.1615 29.588 33.1601C29.1751 33.1589 28.8928 33.0788 28.3284 32.9186C25.295 32.0576 22.4326 30.4332 20.0447 28.0452C17.6567 25.6572 16.0322 22.7948 15.1712 19.7614C15.011 19.197 14.9309 18.9148 14.9297 18.5018C14.9283 18.0436 15.0897 17.4231 15.3141 17.0236C15.5164 16.6636 15.7812 16.3988 16.3108 15.8691L16.4684 15.7115C16.9999 15.1801 17.2656 14.9143 17.551 14.77C18.1185 14.4829 18.7888 14.4829 19.3564 14.77C19.6417 14.9143 19.9075 15.1801 20.4389 15.7115L20.6338 15.9064C20.9834 16.256 21.1582 16.4308 21.2725 16.6066C21.7035 17.2694 21.7035 18.124 21.2725 18.7869C21.1582 18.9627 20.9834 19.1375 20.6338 19.4871C20.5195 19.6014 20.4623 19.6586 20.4145 19.7254C20.2445 19.9628 20.1858 20.3071 20.2675 20.5874C20.2905 20.6663 20.3204 20.7287 20.3803 20.8534Z" stroke="#0089F7" stroke-width="2" stroke-linecap="round" stroke-linejoin="round"/>
</svg>
